<svg width="391" height="317" viewBox="0 0 391 317" fill="none" xmlns="http://www.w3.org/2000/svg">
    <path
        d="M310.35 294.412H282.666V168.462H317.324V187.904C328.946 160.432 359.377 163.602 372.057 188.116L339.09 214.32C337.399 206.289 333.173 202.908 328.524 203.331C322.395 203.965 319.014 211.784 317.324 222.984V294.412H313.942C313.942 294.623 313.942 294.835 313.942 295.046H310.35V294.412Z"
        fill="#FFCF00" />
    <path
        d="M232.181 246.019L259.442 265.46L260.71 266.306C248.665 283.423 228.166 294.835 204.92 294.835C168.15 294.835 138.565 266.728 138.565 231.86C138.565 219.18 142.368 207.346 149.131 197.625C160.754 180.719 180.618 169.519 203.23 169.096C203.653 169.096 204.287 168.885 204.92 168.885C205.343 168.885 205.977 169.096 206.4 169.096H206.611C229.223 169.519 249.087 180.719 260.71 197.625H260.499C266.839 206.712 270.642 217.49 271.276 228.901H173.433C173.433 229.958 173.433 231.015 173.433 231.86C173.433 247.498 187.592 259.966 204.92 259.966C216.543 259.966 226.687 254.472 232.181 246.019ZM204.92 203.754C190.762 203.754 178.716 212.207 174.701 223.618H235.14C231.125 212.207 219.079 203.754 204.92 203.754Z"
        fill="#FFCF00" />
    <path
        d="M125.463 168.885C124.195 202.274 131.802 244.328 123.349 274.97C115.953 302.02 97.3563 313.22 72.8427 315.967C55.3027 318.08 32.691 316.39 18.5323 305.401C9.65663 298.638 4.37351 288.284 6.06411 277.083L36.7062 262.291C31.0004 283.846 91.4393 302.231 91.2279 235.03C83.8316 249.822 68.6162 259.966 51.0762 259.966C26.1399 259.966 6.06411 239.679 6.06411 214.531C6.06411 189.384 26.1399 168.885 51.0762 168.885C67.3482 168.885 81.7183 177.761 89.5373 191.074C89.1147 182.833 88.9034 175.225 88.9034 168.885H125.463ZM65.869 225.098C99.6809 225.098 99.8922 203.754 65.869 203.754C52.1329 203.754 40.9327 208.614 40.9327 214.531C40.9327 220.448 52.1329 225.098 65.869 225.098Z"
        fill="#FFCF00" />
    <path
        d="M307.475 290.683H279.792V164.734H314.449V184.176C326.072 156.703 356.502 159.873 369.182 184.387L336.215 210.591C334.525 202.561 330.298 199.18 325.649 199.602C319.521 200.236 316.139 208.055 314.449 219.256V290.683H311.068C311.068 290.895 311.068 291.106 311.068 291.317H307.475V290.683Z"
        fill="#ED8ADE" />
    <path
        d="M229.306 242.29L256.567 261.732L257.835 262.577C245.79 279.694 225.291 291.106 202.045 291.106C165.275 291.106 135.69 263 135.69 228.131C135.69 215.452 139.493 203.617 146.256 193.896C157.879 176.991 177.743 165.79 200.355 165.368C200.778 165.368 201.411 165.156 202.045 165.156C202.468 165.156 203.102 165.368 203.525 165.368H203.736C226.348 165.79 246.212 176.991 257.835 193.896H257.624C263.964 202.983 267.767 213.761 268.401 225.173H170.558C170.558 226.229 170.558 227.286 170.558 228.131C170.558 243.769 184.717 256.237 202.045 256.237C213.668 256.237 223.812 250.743 229.306 242.29ZM202.045 200.025C187.887 200.025 175.841 208.478 171.826 219.889H232.265C228.25 208.478 216.204 200.025 202.045 200.025Z"
        fill="#ED8ADE" />
    <path
        d="M122.587 165.156C121.319 198.546 128.927 240.599 120.474 271.241C113.078 298.291 94.4811 309.491 69.9674 312.238C52.4275 314.352 29.8158 312.661 15.657 301.672C6.78139 294.91 1.49827 284.555 3.18887 273.355L33.8309 258.562C28.1251 280.117 88.564 298.502 88.3527 231.301C80.9563 246.094 65.7409 256.237 48.201 256.237C23.2647 256.237 3.18887 235.95 3.18887 210.802C3.18887 185.655 23.2647 165.156 48.201 165.156C64.473 165.156 78.8431 174.032 86.6621 187.345C86.2394 179.104 86.0281 171.496 86.0281 165.156H122.587ZM62.9937 221.369C96.8056 221.369 97.017 200.025 62.9937 200.025C49.2576 200.025 38.0575 204.885 38.0575 210.802C38.0575 216.72 49.2576 221.369 62.9937 221.369Z"
        fill="#ED8ADE" />
    <path
        d="M304.6 286.694H276.916V160.744H311.574V180.186C323.196 152.714 353.627 155.884 366.307 180.397L333.34 206.602C331.649 198.571 327.423 195.19 322.774 195.613C316.645 196.247 313.264 204.066 311.574 215.266V286.694H308.192C308.192 286.905 308.192 287.116 308.192 287.328H304.6V286.694Z"
        fill="#2C2C2C" />
    <path
        d="M226.431 238.3L253.692 257.742L254.96 258.587C242.915 275.705 222.416 287.116 199.17 287.116C162.4 287.116 132.814 259.01 132.814 224.142C132.814 211.462 136.618 199.628 143.381 189.907C155.003 173.001 174.868 161.801 197.48 161.378C197.902 161.378 198.536 161.167 199.17 161.167C199.593 161.167 200.227 161.378 200.65 161.378H200.861C223.473 161.801 243.337 173.001 254.96 189.907H254.749C261.088 198.994 264.892 209.771 265.526 221.183H167.683C167.683 222.24 167.683 223.296 167.683 224.142C167.683 239.78 181.842 252.248 199.17 252.248C210.793 252.248 220.937 246.753 226.431 238.3ZM199.17 196.035C185.012 196.035 172.966 204.488 168.951 215.9H229.39C225.375 204.488 213.329 196.035 199.17 196.035Z"
        fill="#2C2C2C" />
    <path
        d="M119.712 161.167C118.444 194.556 126.052 236.61 117.599 267.252C110.203 294.301 91.606 305.502 67.0923 308.249C49.5524 310.362 26.9407 308.671 12.7819 297.683C3.90627 290.92 -1.37685 280.565 0.313746 269.365L30.9558 254.572C25.25 276.127 85.6889 294.513 85.4776 227.311C78.0812 242.104 62.8658 252.248 45.3259 252.248C20.3896 252.248 0.313746 231.961 0.313746 206.813C0.313746 181.665 20.3896 161.167 45.3259 161.167C61.5979 161.167 75.9679 170.042 83.7869 183.356C83.3643 175.114 83.153 167.507 83.153 161.167H119.712ZM60.1186 217.379C93.9305 217.379 94.1419 196.035 60.1186 196.035C46.3825 196.035 35.1823 200.896 35.1823 206.813C35.1823 212.73 46.3825 217.379 60.1186 217.379Z"
        fill="#2C2C2C" />
    <path
        d="M269.7 155.927V29.9778H304.568V62.7331C311.965 43.08 326.969 29.5552 344.297 29.5552C365.007 29.5552 381.279 48.997 387.83 74.99C393.325 97.3904 386.14 133.104 391 155.927C380.011 155.927 368.388 155.927 357.399 155.927C351.694 137.542 353.807 131.202 354.652 118.945C356.131 98.6583 358.245 64.8464 329.505 64.8464C316.614 64.8464 305.202 75.2013 304.568 89.36C303.934 104.575 304.568 145.361 304.568 155.927H269.7Z"
        fill="#FFCF00" />
    <path
        d="M255.103 62.9445C255.103 66.5371 255.103 70.3409 255.103 74.1447V155.927H220.235V134.161C216.854 146.84 208.401 154.871 187.268 155.716C126.407 157.829 114.995 97.6018 172.687 89.9941C195.298 87.0356 220.235 89.7828 220.235 77.7373C220.235 54.4916 169.94 53.8576 174.377 78.1599L141.411 65.0578C139.72 45.4046 171.419 29.9779 195.721 29.9779C219.812 29.9779 254.681 42.2347 255.103 62.9445ZM195.721 121.059C213.05 121.059 220.235 107.534 220.235 91.6847C205.019 94.4319 188.536 93.164 179.026 96.9678C161.064 104.575 174.166 121.059 195.721 121.059Z"
        fill="#FFCF00" />
    <path
        d="M80.3479 29.5553C105.284 29.5553 125.571 57.6615 125.571 92.5301C125.571 127.187 105.284 155.505 80.3479 155.505C63.0193 155.505 48.0152 141.98 40.4075 122.116V155.927H5.75031V8.00021H40.4075V62.7333C48.0152 43.0801 63.0193 29.5553 80.3479 29.5553ZM65.5552 120.636C79.5026 120.636 90.7028 107.957 90.7028 92.5301C90.7028 76.892 79.5026 64.4239 65.5552 64.4239C51.8191 64.4239 40.4075 76.892 40.4075 92.5301C40.4075 107.957 51.8191 120.636 65.5552 120.636Z"
        fill="#FFCF00" />
    <path
        d="M266.825 152.199V26.2493H301.693V59.0046C309.089 39.3514 324.094 25.8266 341.422 25.8266C362.132 25.8266 378.404 45.2685 384.955 71.2614C390.449 93.6618 383.264 129.376 388.125 152.199C377.136 152.199 365.513 152.199 354.524 152.199C348.818 133.814 350.932 127.474 351.777 115.217C353.256 94.9298 355.37 61.1178 326.629 61.1178C313.739 61.1178 302.327 71.4727 301.693 85.6315C301.059 100.847 301.693 141.633 301.693 152.199H266.825Z"
        fill="#ED8ADE" />
    <path
        d="M252.228 59.2158C252.228 62.8083 252.228 66.6121 252.228 70.416V152.199H217.36V130.432C213.979 143.112 205.526 151.142 184.393 151.987C123.532 154.101 112.12 93.873 169.812 86.2653C192.423 83.3068 217.36 86.054 217.36 74.0085C217.36 50.7628 167.064 50.1288 171.502 74.4311L138.536 61.329C136.845 41.6758 168.544 26.2491 192.846 26.2491C216.937 26.2491 251.806 38.5059 252.228 59.2158ZM192.846 117.33C210.175 117.33 217.36 103.805 217.36 87.9559C202.144 90.7031 185.661 89.4352 176.151 93.239C158.189 100.847 171.291 117.33 192.846 117.33Z"
        fill="#ED8ADE" />
    <path
        d="M77.4728 25.8265C102.409 25.8265 122.696 53.9327 122.696 88.8013C122.696 123.459 102.409 151.776 77.4728 151.776C60.1442 151.776 45.1401 138.251 37.5324 118.387V152.199H2.87518V4.27142H37.5324V59.0045C45.1401 39.3513 60.1442 25.8265 77.4728 25.8265ZM62.68 116.907C76.6275 116.907 87.8277 104.228 87.8277 88.8013C87.8277 73.1633 76.6275 60.6951 62.68 60.6951C48.9439 60.6951 37.5324 73.1633 37.5324 88.8013C37.5324 104.228 48.9439 116.907 62.68 116.907Z"
        fill="#ED8ADE" />
    <path
        d="M263.949 148.209V22.2596H298.818V55.015C306.214 35.3618 321.218 21.837 338.547 21.837C359.257 21.837 375.529 41.2789 382.08 67.2718C387.574 89.6722 380.389 125.386 385.25 148.209C374.261 148.209 362.638 148.209 351.649 148.209C345.943 129.824 348.057 123.484 348.902 111.227C350.381 90.9401 352.494 57.1282 323.754 57.1282C310.863 57.1282 299.452 67.4831 298.818 81.6419C298.184 96.8572 298.818 137.643 298.818 148.209H263.949Z"
        fill="#2C2C2C" />
    <path
        d="M249.353 55.2263C249.353 58.8188 249.353 62.6226 249.353 66.4265V148.209H214.485V126.443C211.103 139.122 202.65 147.152 181.518 147.998C120.656 150.111 109.245 89.8835 166.937 82.2758C189.548 79.3173 214.485 82.0645 214.485 70.019C214.485 46.7733 164.189 46.1393 168.627 70.4416L135.661 57.3395C133.97 37.6863 165.669 22.2596 189.971 22.2596C214.062 22.2596 248.931 34.5164 249.353 55.2263ZM189.971 113.341C207.3 113.341 214.485 99.8158 214.485 83.9664C199.269 86.7136 182.786 85.4457 173.276 89.2495C155.314 96.8572 168.416 113.341 189.971 113.341Z"
        fill="#2C2C2C" />
    <path
        d="M74.5977 21.837C99.534 21.837 119.821 49.9432 119.821 84.8118C119.821 119.469 99.534 147.787 74.5977 147.787C57.269 147.787 42.265 134.262 34.6573 114.397V148.209H6.10352e-05V0.281921H34.6573V55.015C42.265 35.3618 57.269 21.837 74.5977 21.837ZM59.8049 112.918C73.7524 112.918 84.9526 100.238 84.9526 84.8118C84.9526 69.1738 73.7524 56.7056 59.8049 56.7056C46.0688 56.7056 34.6573 69.1738 34.6573 84.8118C34.6573 100.238 46.0688 112.918 59.8049 112.918Z"
        fill="#2C2C2C" />
</svg>