<svg width="361" height="84" viewBox="0 0 361 84" fill="none" xmlns="http://www.w3.org/2000/svg">
    <path
        d="M331.269 72.8336H318.279V13.7356H334.541V22.8581C339.995 9.9676 354.274 11.455 360.223 22.9573L344.754 35.2528C343.961 31.4848 341.978 29.8983 339.797 30.0966C336.921 30.3941 335.334 34.0629 334.541 39.3183V72.8336H332.955C332.955 72.9328 332.955 73.0319 332.955 73.1311H331.269V72.8336Z"
        fill="#FFCF00" />
    <path
        d="M294.591 50.1265L307.382 59.2491L307.977 59.6457C302.325 67.6775 292.707 73.032 281.799 73.032C264.546 73.032 250.664 59.844 250.664 43.483C250.664 37.5335 252.449 31.9807 255.622 27.4194C261.075 19.4868 270.396 14.2314 281.006 14.0331C281.204 14.0331 281.502 13.934 281.799 13.934C281.998 13.934 282.295 14.0331 282.493 14.0331H282.593C293.202 14.2314 302.523 19.4868 307.977 27.4194H307.878C310.853 31.6832 312.637 36.7402 312.935 42.0948H267.025C267.025 42.5906 267.025 43.0863 267.025 43.483C267.025 50.8206 273.668 56.671 281.799 56.671C287.253 56.671 292.013 54.0928 294.591 50.1265ZM281.799 30.295C275.156 30.295 269.504 34.2613 267.62 39.6158H295.979C294.095 34.2613 288.443 30.295 281.799 30.295Z"
        fill="#FFCF00" />
    <path
        d="M244.516 13.934C243.921 29.6009 247.491 49.3333 243.524 63.7112C240.054 76.4034 231.328 81.6587 219.826 82.9478C211.596 83.9393 200.986 83.1461 194.342 77.9899C190.178 74.8168 187.699 69.9581 188.492 64.7027L202.87 57.7617C200.192 67.8758 228.552 76.5025 228.452 44.9703C224.982 51.9114 217.843 56.671 209.612 56.671C197.912 56.671 188.492 47.1518 188.492 35.352C188.492 23.5523 197.912 13.934 209.612 13.934C217.248 13.934 223.99 18.0986 227.659 24.3455C227.461 20.4784 227.362 16.9087 227.362 13.934H244.516ZM216.554 40.3099C232.419 40.3099 232.518 30.295 216.554 30.295C210.108 30.295 204.853 32.5756 204.853 35.352C204.853 38.1285 210.108 40.3099 216.554 40.3099Z"
        fill="#FFCF00" />
    <path
        d="M126.548 73.0319V13.9339H142.91V29.3034C146.38 20.0817 153.42 13.7356 161.551 13.7356C171.269 13.7356 178.904 22.8581 181.978 35.0545C184.556 45.5652 181.184 62.3229 183.465 73.0319C178.309 73.0319 172.855 73.0319 167.699 73.0319C165.022 64.4052 166.013 61.4305 166.41 55.6793C167.104 46.1602 168.096 30.2949 154.61 30.2949C148.562 30.2949 143.207 35.1537 142.91 41.7972C142.612 48.9366 142.91 68.0741 142.91 73.0319H126.548Z"
        fill="#FFCF00" />
    <path
        d="M119.7 29.4026C119.7 31.0883 119.7 32.8731 119.7 34.6579V73.032H103.339V62.8187C101.752 68.7682 97.7858 72.5362 87.87 72.9328C59.3126 73.9244 53.9581 45.6644 81.0281 42.0948C91.638 40.7066 103.339 41.9956 103.339 36.3436C103.339 25.4363 79.7391 25.1388 81.8214 36.5419L66.3528 30.3941C65.5595 21.1725 80.4332 13.934 91.8363 13.934C103.14 13.934 119.501 19.6851 119.7 29.4026ZM91.8363 56.671C99.9673 56.671 103.339 50.3249 103.339 42.888C96.1993 44.1771 88.465 43.5821 84.0029 45.367C75.5744 48.9366 81.7222 56.671 91.8363 56.671Z"
        fill="#FFCF00" />
    <path
        d="M37.7008 13.7357C49.4014 13.7357 58.9206 26.9237 58.9206 43.2847C58.9206 59.5466 49.4014 72.8337 37.7008 72.8337C29.5699 72.8337 22.5297 66.4876 18.96 57.1668V73.032H2.69814V3.62158H18.96V29.3034C22.5297 20.0818 29.5699 13.7357 37.7008 13.7357ZM30.7598 56.4727C37.3042 56.4727 42.5596 50.5232 42.5596 43.2847C42.5596 35.947 37.3042 30.0967 30.7598 30.0967C24.3145 30.0967 18.96 35.947 18.96 43.2847C18.96 50.5232 24.3145 56.4727 30.7598 56.4727Z"
        fill="#FFCF00" />
    <path
        d="M329.92 71.0841H316.93V11.9861H333.192V21.1086C338.646 8.21809 352.925 9.70546 358.874 21.2078L343.405 33.5033C342.612 29.7353 340.629 28.1488 338.448 28.3471C335.572 28.6446 333.985 32.3134 333.192 37.5688V71.0841H331.606C331.606 71.1833 331.606 71.2824 331.606 71.3816H329.92V71.0841Z"
        fill="#ED8ADE" />
    <path
        d="M293.242 48.3769L306.033 57.4994L306.628 57.8961C300.976 65.9278 291.358 71.2823 280.45 71.2823C263.197 71.2823 249.315 58.0944 249.315 41.7333C249.315 35.7839 251.1 30.231 254.273 25.6698C259.726 17.7372 269.047 12.4818 279.657 12.2835C279.855 12.2835 280.153 12.1843 280.45 12.1843C280.649 12.1843 280.946 12.2835 281.144 12.2835H281.244C291.853 12.4818 301.174 17.7372 306.628 25.6698H306.529C309.504 29.9336 311.288 34.9906 311.586 40.3451H265.676C265.676 40.8409 265.676 41.3367 265.676 41.7333C265.676 49.071 272.319 54.9213 280.45 54.9213C285.904 54.9213 290.664 52.3432 293.242 48.3769ZM280.45 28.5454C273.807 28.5454 268.155 32.5117 266.271 37.8662H294.63C292.746 32.5117 287.094 28.5454 280.45 28.5454Z"
        fill="#ED8ADE" />
    <path
        d="M243.167 12.1843C242.572 27.8513 246.142 47.5837 242.175 61.9615C238.705 74.6537 229.979 79.9091 218.477 81.1981C210.247 82.1897 199.637 81.3965 192.993 76.2402C188.829 73.0672 186.35 68.2085 187.143 62.9531L201.521 56.0121C198.843 66.1262 227.203 74.7529 227.103 43.2207C223.633 50.1618 216.494 54.9213 208.263 54.9213C196.563 54.9213 187.143 45.4022 187.143 33.6024C187.143 21.8026 196.563 12.1843 208.263 12.1843C215.899 12.1843 222.641 16.349 226.31 22.5959C226.112 18.7287 226.013 15.1591 226.013 12.1843H243.167ZM215.204 38.5603C231.07 38.5603 231.169 28.5454 215.204 28.5454C208.759 28.5454 203.504 30.826 203.504 33.6024C203.504 36.3788 208.759 38.5603 215.204 38.5603Z"
        fill="#ED8ADE" />
    <path
        d="M125.199 71.2824V12.1844H141.56V27.5539C145.031 18.3322 152.071 11.9861 160.202 11.9861C169.92 11.9861 177.555 21.1086 180.629 33.305C183.207 43.8157 179.835 60.5734 182.116 71.2824C176.96 71.2824 171.506 71.2824 166.35 71.2824C163.673 62.6557 164.664 59.681 165.061 53.9298C165.755 44.4107 166.747 28.5454 153.261 28.5454C147.212 28.5454 141.858 33.4042 141.56 40.0477C141.263 47.1871 141.56 66.3245 141.56 71.2824H125.199Z"
        fill="#ED8ADE" />
    <path
        d="M118.351 27.6529C118.351 29.3386 118.351 31.1235 118.351 32.9083V71.2823H101.99V61.0691C100.403 67.0186 96.4367 70.7866 86.5209 71.1832C57.9635 72.1748 52.609 43.9148 79.679 40.3451C90.2889 38.9569 101.99 40.246 101.99 34.594C101.99 23.6866 78.39 23.3892 80.4723 34.7923L65.0037 28.6445C64.2104 19.4228 79.0841 12.1843 90.4872 12.1843C101.791 12.1843 118.152 17.9355 118.351 27.6529ZM90.4872 54.9213C98.6182 54.9213 101.99 48.5752 101.99 41.1384C94.8502 42.4274 87.1159 41.8325 82.6538 43.6173C74.2254 47.187 80.3731 54.9213 90.4872 54.9213Z"
        fill="#ED8ADE" />
    <path
        d="M36.3518 11.986C48.0524 11.986 57.5715 25.174 57.5715 41.5351C57.5715 57.7969 48.0524 71.0841 36.3518 71.0841C28.2208 71.0841 21.1806 64.738 17.6109 55.4171V71.2824H1.34907V1.87195H17.6109V27.5538C21.1806 18.3321 28.2208 11.986 36.3518 11.986ZM29.4107 54.723C35.9551 54.723 41.2105 48.7736 41.2105 41.5351C41.2105 34.1974 35.9551 28.3471 29.4107 28.3471C22.9655 28.3471 17.6109 34.1974 17.6109 41.5351C17.6109 48.7736 22.9655 54.723 29.4107 54.723Z"
        fill="#ED8ADE" />
    <path
        d="M328.571 69.2121H315.581V10.1141H331.843V19.2366C337.297 6.34608 351.575 7.83345 357.525 19.3358L342.056 31.6313C341.263 27.8633 339.28 26.2768 337.098 26.4751C334.223 26.7726 332.636 30.4414 331.843 35.6968V69.2121H330.257C330.257 69.3113 330.257 69.4104 330.257 69.5096H328.571V69.2121Z"
        fill="#2C2C2C" />
    <path
        d="M291.893 46.505L304.684 55.6275L305.279 56.0241C299.627 64.0559 290.009 69.4104 279.101 69.4104C261.848 69.4104 247.966 56.2224 247.966 39.8614C247.966 33.9119 249.751 28.3591 252.924 23.7978C258.377 15.8652 267.698 10.6098 278.308 10.4115C278.506 10.4115 278.804 10.3124 279.101 10.3124C279.3 10.3124 279.597 10.4115 279.795 10.4115H279.894C290.504 10.6098 299.825 15.8652 305.279 23.7978H305.18C308.154 28.0616 309.939 33.1187 310.237 38.4732H264.327C264.327 38.969 264.327 39.4648 264.327 39.8614C264.327 47.1991 270.97 53.0494 279.101 53.0494C284.555 53.0494 289.314 50.4713 291.893 46.505ZM279.101 26.6734C272.458 26.6734 266.806 30.6397 264.922 35.9942H293.281C291.397 30.6397 285.745 26.6734 279.101 26.6734Z"
        fill="#2C2C2C" />
    <path
        d="M241.818 10.3124C241.223 25.9793 244.793 45.7117 240.826 60.0896C237.356 72.7818 228.63 78.0371 217.128 79.3262C208.897 80.3178 198.288 79.5245 191.644 74.3683C187.479 71.1953 185 66.3365 185.794 61.0812L200.172 54.1401C197.494 64.2542 225.853 72.8809 225.754 41.3488C222.284 48.2898 215.144 53.0494 206.914 53.0494C195.214 53.0494 185.794 43.5302 185.794 31.7305C185.794 19.9307 195.214 10.3124 206.914 10.3124C214.549 10.3124 221.292 14.477 224.961 20.7239C224.763 16.8568 224.664 13.2871 224.664 10.3124H241.818ZM213.855 36.6883C229.721 36.6883 229.82 26.6734 213.855 26.6734C207.41 26.6734 202.155 28.954 202.155 31.7305C202.155 34.5069 207.41 36.6883 213.855 36.6883Z"
        fill="#2C2C2C" />
    <path
        d="M123.85 69.4104V10.3124H140.211V25.6818C143.682 16.4602 150.722 10.1141 158.853 10.1141C168.571 10.1141 176.206 19.2366 179.28 31.433C181.858 41.9437 178.486 58.7014 180.767 69.4104C175.611 69.4104 170.157 69.4104 165.001 69.4104C162.324 60.7837 163.315 57.809 163.712 52.0578C164.406 42.5387 165.397 26.6734 151.912 26.6734C145.863 26.6734 140.509 31.5322 140.211 38.1757C139.914 45.3151 140.211 64.4525 140.211 69.4104H123.85Z"
        fill="#2C2C2C" />
    <path
        d="M117.002 25.781C117.002 27.4667 117.002 29.2515 117.002 31.0363V69.4104H100.64V59.1972C99.054 65.1466 95.0877 68.9146 85.1719 69.3112C56.6144 70.3028 51.2599 42.0429 78.33 38.4732C88.9399 37.085 100.64 38.374 100.64 32.722C100.64 21.8147 77.0409 21.5172 79.1232 32.9203L63.6546 26.7726C62.8614 17.5509 77.735 10.3124 89.1382 10.3124C100.442 10.3124 116.803 16.0635 117.002 25.781ZM89.1382 53.0494C97.2691 53.0494 100.64 46.7033 100.64 39.2664C93.5011 40.5555 85.7668 39.9605 81.3047 41.7454C72.8763 45.3151 79.0241 53.0494 89.1382 53.0494Z"
        fill="#2C2C2C" />
    <path
        d="M35.0027 10.1141C46.7033 10.1141 56.2225 23.3021 56.2225 39.6631C56.2225 55.925 46.7033 69.2121 35.0027 69.2121C26.8718 69.2121 19.8316 62.866 16.2619 53.5452V69.4104H0V0H16.2619V25.6819C19.8316 16.4602 26.8718 10.1141 35.0027 10.1141ZM28.0616 52.8511C34.6061 52.8511 39.8614 46.9016 39.8614 39.6631C39.8614 32.3254 34.6061 26.4751 28.0616 26.4751C21.6164 26.4751 16.2619 32.3254 16.2619 39.6631C16.2619 46.9016 21.6164 52.8511 28.0616 52.8511Z"
        fill="#2C2C2C" />
</svg>